<svg width="960" height="640" viewBox="0 0 960 640" fill="none" xmlns="http://www.w3.org/2000/svg">
  <rect width="960" height="640" rx="40" fill="#102846"/>
  <circle cx="164" cy="134" r="78" fill="#18365C"/>
  <circle cx="800" cy="172" r="104" fill="#173C54"/>
  <path d="M222 322C302 236 406 200 514 214C632 230 706 312 786 290" stroke="#FF7A59" stroke-width="8" stroke-linecap="round" stroke-dasharray="2 22"/>
  <circle cx="214" cy="330" r="18" fill="#F4E7D3"/>
  <circle cx="798" cy="292" r="18" fill="#F4E7D3"/>
  <rect x="70" y="82" width="188" height="112" rx="24" fill="#F4E7D3"/>
  <text x="98" y="120" fill="#0F2747" font-family="IBM Plex Mono, monospace" font-size="18" letter-spacing="3">START</text>
  <text x="98" y="160" fill="#0F2747" font-family="Fraunces, serif" font-size="30" font-weight="600">Nepal</text>
  <rect x="690" y="103" width="198" height="126" rx="24" fill="#F4E7D3"/>
  <text x="720" y="142" fill="#0F2747" font-family="IBM Plex Mono, monospace" font-size="18" letter-spacing="3">TARGET</text>
  <text x="720" y="184" fill="#0F2747" font-family="Fraunces, serif" font-size="30" font-weight="600">Australia</text>
  <rect x="84" y="414" width="252" height="146" rx="28" fill="#163353" stroke="#31546F"/>
  <text x="114" y="454" fill="#B7C7D9" font-family="IBM Plex Mono, monospace" font-size="16" letter-spacing="2.2">INTAKE</text>
  <text x="114" y="494" fill="#FFFFFF" font-family="Instrument Sans, sans-serif" font-size="34" font-weight="600">Feb / Jul 2027</text>
  <text x="114" y="528" fill="#B7C7D9" font-family="Instrument Sans, sans-serif" font-size="20">Plan early. Apply calmly.</text>
  <rect x="364" y="370" width="232" height="174" rx="28" fill="#2F7D6D"/>
  <text x="394" y="410" fill="#D7F0EA" font-family="IBM Plex Mono, monospace" font-size="16" letter-spacing="2.2">FOCUS</text>
  <text x="394" y="450" fill="#FFFFFF" font-family="Instrument Sans, sans-serif" font-size="30" font-weight="600">Course shortlist</text>
  <text x="394" y="484" fill="#F1F7F5" font-family="Instrument Sans, sans-serif" font-size="20">Budget guidance</text>
  <text x="394" y="516" fill="#F1F7F5" font-family="Instrument Sans, sans-serif" font-size="20">Visa-ready documents</text>
  <rect x="622" y="394" width="252" height="146" rx="28" fill="#F4E7D3"/>
  <text x="652" y="434" fill="#0F2747" font-family="IBM Plex Mono, monospace" font-size="16" letter-spacing="2.2">RESULT</text>
  <text x="652" y="474" fill="#0F2747" font-family="Instrument Sans, sans-serif" font-size="30" font-weight="600">Clearer next step</text>
  <text x="652" y="508" fill="#38516E" font-family="Instrument Sans, sans-serif" font-size="20">Less noise. More trust.</text>
</svg>
